<svg viewBox="0 0 800 500" xmlns="http://www.w3.org/2000/svg" font-family="'Iowan Old Style', 'Palatino Linotype', Palatino, Georgia, serif">
  <defs>
    <filter id="g3"><feTurbulence type="fractalNoise" baseFrequency=".85" numOctaves="2" stitchTiles="stitch"/><feColorMatrix values="0 0 0 0 0  0 0 0 0 0  0 0 0 0 0  0 0 0 .09 0"/></filter>
    <pattern id="h3" width="5" height="5" patternUnits="userSpaceOnUse" patternTransform="rotate(38)"><line x1="0" y1="0" x2="0" y2="5" stroke="#4a4845" stroke-width=".6"/></pattern>
    <pattern id="k3" width="7" height="7" patternUnits="userSpaceOnUse" patternTransform="rotate(-20)"><line x1="0" y1="0" x2="0" y2="7" stroke="#4a4845" stroke-width=".5"/></pattern>
  </defs>
  <rect width="800" height="500" fill="#f4f2ec"/>
  <rect width="800" height="500" filter="url(#g3)"/>
  <polygon points="422,351 540,330 650,362 532,388" fill="url(#h3)" opacity=".55"/>
  <polygon points="482,201 541,329 422,351" fill="url(#k3)" opacity=".35"/>
  <g fill="none" stroke="#353331" stroke-linecap="round" stroke-width="1.1">
    <path d="M381 171 L481 201"/>
    <path d="M381 171 L321 321"/>
    <path d="M481 201 L421 351"/>
    <path d="M321 321 L421 351"/>
    <path d="M481 201 L541 329"/>
    <path d="M541 329 L454 305" stroke-opacity=".5"/>
    <path d="M382 172 L322 319 M480 203 L423 349" stroke-opacity=".35" stroke-width=".7"/>
  </g>
  <text x="64" y="84" font-size="24" fill="#2e2c2a">The Single File Revolution</text>
  <text x="64" y="440" font-size="14" fill="#4b4845">Bento<tspan dx="22">TiddlyWiki</tspan><tspan dx="22">Decker</tspan><tspan dx="22">Feather Wiki</tspan><tspan dx="22">SingleFile</tspan><tspan dx="22" font-style="italic">Lopecode</tspan></text>
  <path d="M571 446 q6 3 12 0 t12 0 t12 0 t12 0 t12 0" fill="none" stroke="#4b4845" stroke-width=".8"/>
</svg>
