0
SECTION
2
HEADER
9
$INSUNITS
70
4
9
$MEASUREMENT
70
1
0
ENDSEC
0
SECTION
2
ENTITIES
0
POLYLINE
8
TRACE
66
1
70
1
10
0
20
0
30
0
0
VERTEX
8
TRACE
10
-33.9278
20
-21.5195
30
0.0
0
VERTEX
8
TRACE
10
-34.9408
20
-19.9849
30
0.0
0
VERTEX
8
TRACE
10
-34.8297
20
-19.4599
30
0.0
0
VERTEX
8
TRACE
10
-35.0390
20
-19.1428
30
0.0
0
VERTEX
8
TRACE
10
-34.8725
20
-18.3553
30
0.0
0
VERTEX
8
TRACE
10
-35.0819
20
-18.0382
30
0.0
0
VERTEX
8
TRACE
10
-34.8601
20
-16.9883
30
0.0
0
VERTEX
8
TRACE
10
-35.0696
20
-16.6711
30
0.0
0
VERTEX
8
TRACE
10
-34.8480
20
-15.6211
30
0.0
0
VERTEX
8
TRACE
10
-35.0576
20
-15.3038
30
0.0
0
VERTEX
8
TRACE
10
-34.8915
20
-14.5163
30
0.0
0
VERTEX
8
TRACE
10
-35.1012
20
-14.1989
30
0.0
0
VERTEX
8
TRACE
10
-34.8800
20
-13.1489
30
0.0
0
VERTEX
8
TRACE
10
-35.0897
20
-12.8314
30
0.0
0
VERTEX
8
TRACE
10
-35.0727
20
-12.5609
30
0.0
0
VERTEX
8
TRACE
10
-34.7780
20
-11.8002
30
0.0
0
VERTEX
8
TRACE
10
-34.9878
20
-11.4825
30
0.0
0
VERTEX
8
TRACE
10
-34.7670
20
-10.4324
30
0.0
0
VERTEX
8
TRACE
10
-34.9770
20
-10.1146
30
0.0
0
VERTEX
8
TRACE
10
-34.8115
20
-9.3269
30
0.0
0
VERTEX
8
TRACE
10
-35.0215
20
-9.0091
30
0.0
0
VERTEX
8
TRACE
10
-34.8011
20
-7.9586
30
0.0
0
VERTEX
8
TRACE
10
-35.0112
20
-7.6406
30
0.0
0
VERTEX
8
TRACE
10
-34.7910
20
-6.5900
30
0.0
0
VERTEX
8
TRACE
10
-35.0012
20
-6.2719
30
0.0
0
VERTEX
8
TRACE
10
-34.7812
20
-5.2210
30
0.0
0
VERTEX
8
TRACE
10
-34.9915
20
-4.9027
30
0.0
0
VERTEX
8
TRACE
10
-34.7717
20
-3.8517
30
0.0
0
VERTEX
8
TRACE
10
-34.9821
20
-3.5332
30
0.0
0
VERTEX
8
TRACE
10
-34.7625
20
-2.4819
30
0.0
0
VERTEX
8
TRACE
10
-34.8677
20
-2.3226
30
0.0
0
VERTEX
8
TRACE
10
-35.1332
20
-2.2668
30
0.0
0
VERTEX
8
TRACE
10
-35.2385
20
-2.1074
30
0.0
0
VERTEX
8
TRACE
10
-34.7998
20
-0.0039
30
0.0
0
VERTEX
8
TRACE
10
-35.0105
20
0.3151
30
0.0
0
VERTEX
8
TRACE
10
-34.8462
20
1.1043
30
0.0
0
VERTEX
8
TRACE
10
-35.0570
20
1.4234
30
0.0
0
VERTEX
8
TRACE
10
-34.7834
20
2.7391
30
0.0
0
VERTEX
8
TRACE
10
-34.9944
20
3.0585
30
0.0
0
VERTEX
8
TRACE
10
-34.7756
20
4.1115
30
0.0
0
VERTEX
8
TRACE
10
-34.9867
20
4.4311
30
0.0
0
VERTEX
8
TRACE
10
-34.4406
20
7.0651
30
0.0
0
VERTEX
8
TRACE
10
-32.9993
20
7.9960
30
0.0
0
VERTEX
8
TRACE
10
-32.7337
20
7.9393
30
0.0
0
VERTEX
8
TRACE
10
-32.4136
20
8.1462
30
0.0
0
VERTEX
8
TRACE
10
-31.8827
20
8.0329
30
0.0
0
VERTEX
8
TRACE
10
-31.2787
20
8.2732
30
0.0
0
VERTEX
8
TRACE
10
-30.4829
20
8.1034
30
0.0
0
VERTEX
8
TRACE
10
-30.1631
20
8.3101
30
0.0
0
VERTEX
8
TRACE
10
-29.1029
20
8.0838
30
0.0
0
VERTEX
8
TRACE
10
-28.7834
20
8.2905
30
0.0
0
VERTEX
8
TRACE
10
-27.9889
20
8.1208
30
0.0
0
VERTEX
8
TRACE
10
-27.6695
20
8.3275
30
0.0
0
VERTEX
8
TRACE
10
-26.6110
20
8.1014
30
0.0
0
VERTEX
8
TRACE
10
-26.2918
20
8.3080
30
0.0
0
VERTEX
8
TRACE
10
-25.2341
20
8.0820
30
0.0
0
VERTEX
8
TRACE
10
-24.9151
20
8.2886
30
0.0
0
VERTEX
8
TRACE
10
-24.1224
20
8.1192
30
0.0
0
VERTEX
8
TRACE
10
-23.8036
20
8.3257
30
0.0
0
VERTEX
8
TRACE
10
-22.7473
20
8.0999
30
0.0
0
VERTEX
8
TRACE
10
-22.4287
20
8.3064
30
0.0
0
VERTEX
8
TRACE
10
-21.3733
20
8.0807
30
0.0
0
VERTEX
8
TRACE
10
-21.0547
20
8.2872
30
0.0
0
VERTEX
8
TRACE
10
-20.2637
20
8.1180
30
0.0
0
VERTEX
8
TRACE
10
-19.9453
20
8.3244
30
0.0
0
VERTEX
8
TRACE
10
-18.8912
20
8.0990
30
0.0
0
VERTEX
8
TRACE
10
-18.5730
20
8.3054
30
0.0
0
VERTEX
8
TRACE
10
-17.5196
20
8.0800
30
0.0
0
VERTEX
8
TRACE
10
-17.2015
20
8.2864
30
0.0
0
VERTEX
8
TRACE
10
-16.4120
20
8.1174
30
0.0
0
VERTEX
8
TRACE
10
-16.0940
20
8.3238
30
0.0
0
VERTEX
8
TRACE
10
-14.7879
20
8.0875
30
0.0
0
VERTEX
8
TRACE
10
-14.7427
20
8.2150
30
0.0
0
VERTEX
8
TRACE
10
-14.2169
20
8.1025
30
0.0
0
VERTEX
8
TRACE
10
-13.5813
20
8.5150
30
0.0
0
VERTEX
8
TRACE
10
-13.3185
20
8.4588
30
0.0
0
VERTEX
8
TRACE
10
-12.5242
20
8.9744
30
0.0
0
VERTEX
8
TRACE
10
-12.4693
20
9.2370
30
0.0
0
VERTEX
8
TRACE
10
-12.1515
20
9.4433
30
0.0
0
VERTEX
8
TRACE
10
-11.7668
20
11.2820
30
0.0
0
VERTEX
8
TRACE
10
-11.9746
20
11.6012
30
0.0
0
VERTEX
8
TRACE
10
-11.9197
20
11.8640
30
0.0
0
VERTEX
8
TRACE
10
-11.7510
20
12.1024
30
0.0
0
VERTEX
8
TRACE
10
-12.1077
20
12.7285
30
0.0
0
VERTEX
8
TRACE
10
-11.8879
20
13.7804
30
0.0
0
VERTEX
8
TRACE
10
-12.0959
20
14.1001
30
0.0
0
VERTEX
8
TRACE
10
-11.8761
20
15.1527
30
0.0
0
VERTEX
8
TRACE
10
-12.0842
20
15.4726
30
0.0
0
VERTEX
8
TRACE
10
-11.8644
20
16.5259
30
0.0
0
VERTEX
8
TRACE
10
-12.0726
20
16.8461
30
0.0
0
VERTEX
8
TRACE
10
-11.8528
20
17.9001
30
0.0
0
VERTEX
8
TRACE
10
-12.0611
20
18.2205
30
0.0
0
VERTEX
8
TRACE
10
-11.8413
20
19.2753
30
0.0
0
VERTEX
8
TRACE
10
-11.6413
20
19.7833
30
0.0
0
VERTEX
8
TRACE
10
-11.4567
20
21.1224
30
0.0
0
VERTEX
8
TRACE
10
-11.1384
20
21.3293
30
0.0
0
VERTEX
8
TRACE
10
-11.0834
20
21.5933
30
0.0
0
VERTEX
8
TRACE
10
-10.8152
20
21.7677
30
0.0
0
VERTEX
8
TRACE
10
-10.5519
20
21.7106
30
0.0
0
VERTEX
8
TRACE
10
-9.9153
20
22.1246
30
0.0
0
VERTEX
8
TRACE
10
-9.6521
20
22.0675
30
0.0
0
VERTEX
8
TRACE
10
-9.3338
20
22.2745
30
0.0
0
VERTEX
8
TRACE
10
-8.5443
20
22.1034
30
0.0
0
VERTEX
8
TRACE
10
-8.2261
20
22.3104
30
0.0
0
VERTEX
8
TRACE
10
-7.4369
20
22.1393
30
0.0
0
VERTEX
8
TRACE
10
-7.1187
20
22.3464
30
0.0
0
VERTEX
8
TRACE
10
-6.0669
20
22.1185
30
0.0
0
VERTEX
8
TRACE
10
-5.7487
20
22.3255
30
0.0
0
VERTEX
8
TRACE
10
-4.6974
20
22.0978
30
0.0
0
VERTEX
8
TRACE
10
-4.3793
20
22.3048
30
0.0
0
VERTEX
8
TRACE
10
-3.5911
20
22.1342
30
0.0
0
VERTEX
8
TRACE
10
-3.2730
20
22.3412
30
0.0
0
VERTEX
8
TRACE
10
-2.2224
20
22.1139
30
0.0
0
VERTEX
8
TRACE
10
-1.9044
20
22.3209
30
0.0
0
VERTEX
8
TRACE
10
-0.8542
20
22.0937
30
0.0
0
VERTEX
8
TRACE
10
-0.5362
20
22.3008
30
0.0
0
VERTEX
8
TRACE
10
0.2512
20
22.1305
30
0.0
0
VERTEX
8
TRACE
10
0.5692
20
22.3376
30
0.0
0
VERTEX
8
TRACE
10
1.6188
20
22.1108
30
0.0
0
VERTEX
8
TRACE
10
1.9368
20
22.3179
30
0.0
0
VERTEX
8
TRACE
10
2.7238
20
22.1478
30
0.0
0
VERTEX
8
TRACE
10
3.0418
20
22.3550
30
0.0
0
VERTEX
8
TRACE
10
4.0908
20
22.1284
30
0.0
0
VERTEX
8
TRACE
10
4.4088
20
22.3356
30
0.0
0
VERTEX
8
TRACE
10
5.4576
20
22.1092
30
0.0
0
VERTEX
8
TRACE
10
5.7756
20
22.3164
30
0.0
0
VERTEX
8
TRACE
10
6.5621
20
22.1467
30
0.0
0
VERTEX
8
TRACE
10
6.8801
20
22.3539
30
0.0
0
VERTEX
8
TRACE
10
7.9285
20
22.1278
30
0.0
0
VERTEX
8
TRACE
10
8.2466
20
22.3350
30
0.0
0
VERTEX
8
TRACE
10
9.8188
20
21.9962
30
0.0
0
VERTEX
8
TRACE
10
10.0616
20
21.8495
30
0.0
0
VERTEX
8
TRACE
10
11.1287
20
21.7141
30
0.0
0
VERTEX
8
TRACE
10
12.1249
20
20.1652
30
0.0
0
VERTEX
8
TRACE
10
12.0125
20
19.6384
30
0.0
0
VERTEX
8
TRACE
10
12.2181
20
19.3188
30
0.0
0
VERTEX
8
TRACE
10
12.1058
20
18.7923
30
0.0
0
VERTEX
8
TRACE
10
12.3114
20
18.4729
30
0.0
0
VERTEX
8
TRACE
10
12.0869
20
17.4205
30
0.0
0
VERTEX
8
TRACE
10
12.2924
20
17.1013
30
0.0
0
VERTEX
8
TRACE
10
12.1241
20
16.3126
30
0.0
0
VERTEX
8
TRACE
10
12.3296
20
15.9936
30
0.0
0
VERTEX
8
TRACE
10
12.1054
20
14.9425
30
0.0
0
VERTEX
8
TRACE
10
12.3109
20
14.6238
30
0.0
0
VERTEX
8
TRACE
10
12.0867
20
13.5734
30
0.0
0
VERTEX
8
TRACE
10
12.2922
20
13.2549
30
0.0
0
VERTEX
8
TRACE
10
12.1242
20
12.4676
30
0.0
0
VERTEX
8
TRACE
10
12.3296
20
12.1492
30
0.0
0
VERTEX
8
TRACE
10
12.0710
20
11.9303
30
0.0
0
VERTEX
8
TRACE
10
12.1282
20
11.6437
30
0.0
0
VERTEX
8
TRACE
10
12.0163
20
11.1192
30
0.0
0
VERTEX
8
TRACE
10
12.4271
20
10.4829
30
0.0
0
VERTEX
8
TRACE
10
12.3152
20
9.9587
30
0.0
0
VERTEX
8
TRACE
10
12.5205
20
9.6407
30
0.0
0
VERTEX
8
TRACE
10
12.4646
20
9.3787
30
0.0
0
VERTEX
8
TRACE
10
12.7726
20
8.9018
30
0.0
0
VERTEX
8
TRACE
10
13.0338
20
8.8460
30
0.0
0
VERTEX
8
TRACE
10
13.2391
20
8.5281
30
0.0
0
VERTEX
8
TRACE
10
14.5452
20
8.2489
30
0.0
0
VERTEX
8
TRACE
10
14.7822
20
8.0798
30
0.0
0
VERTEX
8
TRACE
10
15.0868
20
8.2269
30
0.0
0
VERTEX
8
TRACE
10
15.6092
20
8.1153
30
0.0
0
VERTEX
8
TRACE
10
15.9264
20
8.3214
30
0.0
0
VERTEX
8
TRACE
10
16.9712
20
8.0982
30
0.0
0
VERTEX
8
TRACE
10
17.2885
20
8.3043
30
0.0
0
VERTEX
8
TRACE
10
18.0721
20
8.1369
30
0.0
0
VERTEX
8
TRACE
10
18.3895
20
8.3430
30
0.0
0
VERTEX
8
TRACE
10
19.4343
20
8.1199
30
0.0
0
VERTEX
8
TRACE
10
19.7518
20
8.3260
30
0.0
0
VERTEX
8
TRACE
10
20.7967
20
8.1029
30
0.0
0
VERTEX
8
TRACE
10
21.1142
20
8.3090
30
0.0
0
VERTEX
8
TRACE
10
21.8979
20
8.1418
30
0.0
0
VERTEX
8
TRACE
10
22.2156
20
8.3479
30
0.0
0
VERTEX
8
TRACE
10
23.2607
20
8.1249
30
0.0
0
VERTEX
8
TRACE
10
23.5784
20
8.3311
30
0.0
0
VERTEX
8
TRACE
10
24.6237
20
8.1082
30
0.0
0
VERTEX
8
TRACE
10
24.9415
20
8.3144
30
0.0
0
VERTEX
8
TRACE
10
25.9869
20
8.0915
30
0.0
0
VERTEX
8
TRACE
10
26.3049
20
8.2977
30
0.0
0
VERTEX
8
TRACE
10
27.0891
20
8.1306
30
0.0
0
VERTEX
8
TRACE
10
27.4072
20
8.3368
30
0.0
0
VERTEX
8
TRACE
10
28.4530
20
8.1140
30
0.0
0
VERTEX
8
TRACE
10
28.7712
20
8.3203
30
0.0
0
VERTEX
8
TRACE
10
29.8172
20
8.0975
30
0.0
0
VERTEX
8
TRACE
10
30.1356
20
8.3038
30
0.0
0
VERTEX
8
TRACE
10
30.9203
20
8.1368
30
0.0
0
VERTEX
8
TRACE
10
31.2388
20
8.3431
30
0.0
0
VERTEX
8
TRACE
10
31.7426
20
8.1420
30
0.0
0
VERTEX
8
TRACE
10
34.3596
20
7.5854
30
0.0
0
VERTEX
8
TRACE
10
34.6666
20
7.1090
30
0.0
0
VERTEX
8
TRACE
10
34.6096
20
6.8471
30
0.0
0
VERTEX
8
TRACE
10
35.0190
20
6.2121
30
0.0
0
VERTEX
8
TRACE
10
34.9620
20
5.9502
30
0.0
0
VERTEX
8
TRACE
10
35.3714
20
5.3154
30
0.0
0
VERTEX
8
TRACE
10
35.0296
20
3.7452
30
0.0
0
VERTEX
8
TRACE
10
35.2343
20
3.4280
30
0.0
0
VERTEX
8
TRACE
10
35.0637
20
2.6434
30
0.0
0
VERTEX
8
TRACE
10
35.2685
20
2.3262
30
0.0
0
VERTEX
8
TRACE
10
35.0411
20
1.2805
30
0.0
0
VERTEX
8
TRACE
10
35.2460
20
0.9635
30
0.0
0
VERTEX
8
TRACE
10
35.0189
20
-0.0818
30
0.0
0
VERTEX
8
TRACE
10
35.2238
20
-0.3988
30
0.0
0
VERTEX
8
TRACE
10
35.0537
20
-1.1824
30
0.0
0
VERTEX
8
TRACE
10
35.2586
20
-1.4993
30
0.0
0
VERTEX
8
TRACE
10
35.0320
20
-2.5438
30
0.0
0
VERTEX
8
TRACE
10
35.2369
20
-2.8605
30
0.0
0
VERTEX
8
TRACE
10
35.0672
20
-3.6437
30
0.0
0
VERTEX
8
TRACE
10
35.2721
20
-3.9604
30
0.0
0
VERTEX
8
TRACE
10
35.1026
20
-4.7433
30
0.0
0
VERTEX
8
TRACE
10
35.3076
20
-5.0599
30
0.0
0
VERTEX
8
TRACE
10
35.0253
20
-6.3644
30
0.0
0
VERTEX
8
TRACE
10
35.2303
20
-6.6809
30
0.0
0
VERTEX
8
TRACE
10
35.0612
20
-7.4634
30
0.0
0
VERTEX
8
TRACE
10
35.2662
20
-7.7799
30
0.0
0
VERTEX
8
TRACE
10
35.0409
20
-8.8229
30
0.0
0
VERTEX
8
TRACE
10
35.2460
20
-9.1393
30
0.0
0
VERTEX
8
TRACE
10
35.0210
20
-10.1821
30
0.0
0
VERTEX
8
TRACE
10
35.2261
20
-10.4985
30
0.0
0
VERTEX
8
TRACE
10
35.1137
20
-11.0197
30
0.0
0
VERTEX
8
TRACE
10
35.3189
20
-11.3361
30
0.0
0
VERTEX
8
TRACE
10
35.0942
20
-12.3785
30
0.0
0
VERTEX
8
TRACE
10
35.3328
20
-12.9745
30
0.0
0
VERTEX
8
TRACE
10
35.1085
20
-14.0167
30
0.0
0
VERTEX
8
TRACE
10
35.3138
20
-14.3330
30
0.0
0
VERTEX
8
TRACE
10
35.1457
20
-15.1146
30
0.0
0
VERTEX
8
TRACE
10
35.3510
20
-15.4309
30
0.0
0
VERTEX
8
TRACE
10
35.1272
20
-16.4728
30
0.0
0
VERTEX
8
TRACE
10
35.3325
20
-16.7891
30
0.0
0
VERTEX
8
TRACE
10
35.1089
20
-17.8310
30
0.0
0
VERTEX
8
TRACE
10
35.3144
20
-18.1473
30
0.0
0
VERTEX
8
TRACE
10
35.0352
20
-19.4495
30
0.0
0
VERTEX
8
TRACE
10
34.8900
20
-19.6908
30
0.0
0
VERTEX
8
TRACE
10
34.7007
20
-21.0121
30
0.0
0
VERTEX
8
TRACE
10
33.4833
20
-21.7982
30
0.0
0
VERTEX
8
TRACE
10
33.2222
20
-21.7423
30
0.0
0
VERTEX
8
TRACE
10
32.9055
20
-21.9469
30
0.0
0
VERTEX
8
TRACE
10
32.3833
20
-21.8353
30
0.0
0
VERTEX
8
TRACE
10
32.0667
20
-22.0399
30
0.0
0
VERTEX
8
TRACE
10
31.2837
20
-21.8726
30
0.0
0
VERTEX
8
TRACE
10
30.9671
20
-22.0772
30
0.0
0
VERTEX
8
TRACE
10
29.9235
20
-21.8542
30
0.0
0
VERTEX
8
TRACE
10
29.6070
20
-22.0589
30
0.0
0
VERTEX
8
TRACE
10
28.8245
20
-21.8918
30
0.0
0
VERTEX
8
TRACE
10
28.5081
20
-22.0965
30
0.0
0
VERTEX
8
TRACE
10
27.4650
20
-21.8738
30
0.0
0
VERTEX
8
TRACE
10
27.1488
20
-22.0785
30
0.0
0
VERTEX
8
TRACE
10
26.1059
20
-21.8560
30
0.0
0
VERTEX
8
TRACE
10
25.7897
20
-22.0607
30
0.0
0
VERTEX
8
TRACE
10
25.0077
20
-21.8939
30
0.0
0
VERTEX
8
TRACE
10
24.6917
20
-22.0987
30
0.0
0
VERTEX
8
TRACE
10
23.6492
20
-21.8765
30
0.0
0
VERTEX
8
TRACE
10
23.3332
20
-22.0813
30
0.0
0
VERTEX
8
TRACE
10
22.2909
20
-21.8592
30
0.0
0
VERTEX
8
TRACE
10
21.9750
20
-22.0641
30
0.0
0
VERTEX
8
TRACE
10
21.1934
20
-21.8976
30
0.0
0
VERTEX
8
TRACE
10
20.8775
20
-22.1025
30
0.0
0
VERTEX
8
TRACE
10
19.8355
20
-21.8807
30
0.0
0
VERTEX
8
TRACE
10
19.5197
20
-22.0856
30
0.0
0
VERTEX
8
TRACE
10
18.4778
20
-21.8640
30
0.0
0
VERTEX
8
TRACE
10
18.1620
20
-22.0690
30
0.0
0
VERTEX
8
TRACE
10
17.3807
20
-21.9028
30
0.0
0
VERTEX
8
TRACE
10
17.0649
20
-22.1078
30
0.0
0
VERTEX
8
TRACE
10
16.0232
20
-21.8864
30
0.0
0
VERTEX
8
TRACE
10
15.7074
20
-22.0915
30
0.0
0
VERTEX
8
TRACE
10
14.6657
20
-21.8702
30
0.0
0
VERTEX
8
TRACE
10
14.3500
20
-22.0754
30
0.0
0
VERTEX
8
TRACE
10
13.3083
20
-21.8542
30
0.0
0
VERTEX
8
TRACE
10
12.9926
20
-22.0594
30
0.0
0
VERTEX
8
TRACE
10
12.2113
20
-21.8936
30
0.0
0
VERTEX
8
TRACE
10
11.8957
20
-22.0989
30
0.0
0
VERTEX
8
TRACE
10
10.8539
20
-21.8780
30
0.0
0
VERTEX
8
TRACE
10
10.5382
20
-22.0833
30
0.0
0
VERTEX
8
TRACE
10
9.4964
20
-21.8625
30
0.0
0
VERTEX
8
TRACE
10
9.1807
20
-22.0678
30
0.0
0
VERTEX
8
TRACE
10
8.3993
20
-21.9024
30
0.0
0
VERTEX
8
TRACE
10
8.0836
20
-22.1078
30
0.0
0
VERTEX
8
TRACE
10
7.0415
20
-21.8872
30
0.0
0
VERTEX
8
TRACE
10
6.7258
20
-22.0927
30
0.0
0
VERTEX
8
TRACE
10
5.6837
20
-21.8723
30
0.0
0
VERTEX
8
TRACE
10
5.3679
20
-22.0778
30
0.0
0
VERTEX
8
TRACE
10
4.3256
20
-21.8575
30
0.0
0
VERTEX
8
TRACE
10
4.0098
20
-22.0631
30
0.0
0
VERTEX
8
TRACE
10
3.2279
20
-21.8980
30
0.0
0
VERTEX
8
TRACE
10
2.9121
20
-22.1036
30
0.0
0
VERTEX
8
TRACE
10
1.8694
20
-21.8836
30
0.0
0
VERTEX
8
TRACE
10
1.5535
20
-22.0893
30
0.0
0
VERTEX
8
TRACE
10
0.5105
20
-21.8694
30
0.0
0
VERTEX
8
TRACE
10
0.1946
20
-22.0751
30
0.0
0
VERTEX
8
TRACE
10
-0.5878
20
-21.9103
30
0.0
0
VERTEX
8
TRACE
10
-0.9039
20
-22.1161
30
0.0
0
VERTEX
8
TRACE
10
-1.9473
20
-21.8964
30
0.0
0
VERTEX
8
TRACE
10
-2.2634
20
-22.1023
30
0.0
0
VERTEX
8
TRACE
10
-3.3072
20
-21.8827
30
0.0
0
VERTEX
8
TRACE
10
-3.6234
20
-22.0887
30
0.0
0
VERTEX
8
TRACE
10
-4.6675
20
-21.8692
30
0.0
0
VERTEX
8
TRACE
10
-4.9838
20
-22.0752
30
0.0
0
VERTEX
8
TRACE
10
-5.7671
20
-21.9107
30
0.0
0
VERTEX
8
TRACE
10
-6.0835
20
-22.1168
30
0.0
0
VERTEX
8
TRACE
10
-7.1283
20
-21.8975
30
0.0
0
VERTEX
8
TRACE
10
-7.4448
20
-22.1037
30
0.0
0
VERTEX
8
TRACE
10
-8.4901
20
-21.8846
30
0.0
0
VERTEX
8
TRACE
10
-8.8066
20
-22.0908
30
0.0
0
VERTEX
8
TRACE
10
-9.8524
20
-21.8718
30
0.0
0
VERTEX
8
TRACE
10
-10.1691
20
-22.0781
30
0.0
0
VERTEX
8
TRACE
10
-11.2153
20
-21.8592
30
0.0
0
VERTEX
8
TRACE
10
-11.5321
20
-22.0656
30
0.0
0
VERTEX
8
TRACE
10
-12.3171
20
-21.9015
30
0.0
0
VERTEX
8
TRACE
10
-12.6340
20
-22.1080
30
0.0
0
VERTEX
8
TRACE
10
-13.6812
20
-21.8892
30
0.0
0
VERTEX
8
TRACE
10
-13.9983
20
-22.0958
30
0.0
0
VERTEX
8
TRACE
10
-15.0460
20
-21.8771
30
0.0
0
VERTEX
8
TRACE
10
-15.3633
20
-22.0838
30
0.0
0
VERTEX
8
TRACE
10
-16.4115
20
-21.8652
30
0.0
0
VERTEX
8
TRACE
10
-16.7290
20
-22.0720
30
0.0
0
VERTEX
8
TRACE
10
-17.5156
20
-21.9082
30
0.0
0
VERTEX
8
TRACE
10
-17.8332
20
-22.1150
30
0.0
0
VERTEX
8
TRACE
10
-18.8826
20
-21.8966
30
0.0
0
VERTEX
8
TRACE
10
-19.2003
20
-22.1036
30
0.0
0
VERTEX
8
TRACE
10
-20.2504
20
-21.8853
30
0.0
0
VERTEX
8
TRACE
10
-20.5684
20
-22.0923
30
0.0
0
VERTEX
8
TRACE
10
-21.6191
20
-21.8741
30
0.0
0
VERTEX
8
TRACE
10
-21.9373
20
-22.0813
30
0.0
0
VERTEX
8
TRACE
10
-22.9888
20
-21.8631
30
0.0
0
VERTEX
8
TRACE
10
-23.3071
20
-22.0704
30
0.0
0
VERTEX
8
TRACE
10
-24.0962
20
-21.9068
30
0.0
0
VERTEX
8
TRACE
10
-24.4148
20
-22.1142
30
0.0
0
VERTEX
8
TRACE
10
-25.4676
20
-21.8962
30
0.0
0
VERTEX
8
TRACE
10
-25.7864
20
-22.1036
30
0.0
0
VERTEX
8
TRACE
10
-26.8400
20
-21.8858
30
0.0
0
VERTEX
8
TRACE
10
-27.1590
20
-22.0933
30
0.0
0
VERTEX
8
TRACE
10
-28.2135
20
-21.8755
30
0.0
0
VERTEX
8
TRACE
10
-28.5327
20
-22.0832
30
0.0
0
VERTEX
8
TRACE
10
-29.5881
20
-21.8654
30
0.0
0
VERTEX
8
TRACE
10
-29.9075
20
-22.0732
30
0.0
0
VERTEX
8
TRACE
10
-30.6997
20
-21.9100
30
0.0
0
VERTEX
8
TRACE
10
-31.0193
20
-22.1178
30
0.0
0
VERTEX
8
TRACE
10
-33.9278
20
-21.5195
30
0.0
0
SEQEND
8
TRACE
0
ENDSEC
0
EOF
