<svg viewBox="0 0 800 500" xmlns="http://www.w3.org/2000/svg" font-family="system-ui, -apple-system, sans-serif">
  <rect width="800" height="500" fill="#121110"/>
  <g font-size="58" font-weight="800" letter-spacing="-3" fill="#efe9e4">
    <text x="40" y="100">The Single</text><text x="40" y="158">File</text><text x="40" y="216">Revolution</text>
  </g>
  <g font-family="ui-monospace, Menlo, monospace">
    <g font-size="16" fill="#efe9e4">
      <text x="420" y="96">Bento</text><text x="420" y="140">Decker</text><text x="420" y="184">Feather Wiki</text><text x="420" y="228">SingleFile</text><text x="420" y="272">TiddlyWiki</text>
    </g>
    <g font-size="11" fill="#857d77" text-anchor="end">
      <text x="760" y="96">bento.page</text><text x="760" y="140">beyondloom.com</text><text x="760" y="184">feather.wiki</text><text x="760" y="228">github.com</text><text x="760" y="272">tiddlywiki.com</text>
    </g>
    <g stroke="#2d2926"><path d="M420 110H760M420 154H760M420 198H760M420 242H760M420 286H760"/></g>
    <rect x="410" y="292" width="360" height="30" fill="#ff5c1a"/>
    <text x="420" y="312" font-size="16" fill="#121110">Lopecode</text>
    <text x="760" y="312" font-size="11" fill="#121110" text-anchor="end">tomlarkworthy.github.io</text>
    <rect x="420" y="334" width="96" height="22" rx="2" fill="none" stroke="#ff5c1a" stroke-dasharray="3 2"/>
    <text x="430" y="349" font-size="12" fill="#ff5c1a">+ add new</text>
    <text x="760" y="349" font-size="11" fill="#857d77" text-anchor="end">added today</text>
    <text x="40" y="462" font-size="11" fill="#857d77">This page is the whole thing. View source.</text>
    <text x="40" y="480" font-size="11" fill="#857d77">6 names</text>
  </g>
</svg>
